<svg xmlns="http://www.w3.org/2000/svg" xmlns:xlink="http://www.w3.org/1999/xlink" width="350" zoomAndPan="magnify" viewBox="0 0 262.5 262.500001" height="350" preserveAspectRatio="xMidYMid meet" version="1.0"><defs><clipPath id="684653a71e"><path d="M 30.164062 20.015625 L 232.664062 20.015625 L 232.664062 242.765625 L 30.164062 242.765625 Z M 30.164062 20.015625 " clip-rule="nonzero"/></clipPath></defs><g clip-path="url(#684653a71e)"><path fill="#ededed" d="M 162.988281 131.390625 L 231.816406 28.1875 C 232.847656 26.640625 232.949219 24.648438 232.070312 23.007812 C 231.191406 21.367188 229.480469 20.339844 227.617188 20.339844 L 190.550781 20.339844 C 188.898438 20.339844 187.347656 21.148438 186.402344 22.503906 L 131.667969 101.101562 L 76.925781 22.503906 C 75.984375 21.148438 74.4375 20.339844 72.785156 20.339844 L 35.71875 20.339844 C 33.855469 20.339844 32.144531 21.363281 31.265625 23.003906 C 30.386719 24.644531 30.488281 26.640625 31.519531 28.183594 L 100.347656 131.390625 L 31.519531 234.59375 C 30.488281 236.140625 30.386719 238.128906 31.265625 239.769531 C 32.144531 241.410156 33.855469 242.441406 35.71875 242.441406 L 72.785156 242.441406 C 74.4375 242.441406 75.988281 241.632812 76.933594 240.277344 L 131.667969 161.675781 L 186.410156 240.277344 C 187.351562 241.632812 188.898438 242.441406 190.550781 242.441406 L 227.617188 242.441406 C 229.480469 242.441406 231.191406 241.417969 232.070312 239.777344 C 232.949219 238.136719 232.847656 236.140625 231.816406 234.597656 Z M 162.988281 131.390625 " fill-opacity="1" fill-rule="nonzero"/></g></svg>