<svg xmlns="http://www.w3.org/2000/svg" xmlns:xlink="http://www.w3.org/1999/xlink" width="350" zoomAndPan="magnify" viewBox="0 0 262.5 262.500001" height="350" preserveAspectRatio="xMidYMid meet" version="1.0"><defs><clipPath id="bb8fffdf82"><path d="M 47 13.925781 L 216 13.925781 L 216 184 L 47 184 Z M 47 13.925781 " clip-rule="nonzero"/></clipPath><clipPath id="0e97afb3e3"><path d="M 43 172 L 110 172 L 110 244.175781 L 43 244.175781 Z M 43 172 " clip-rule="nonzero"/></clipPath><clipPath id="b8d9ba17c5"><path d="M 153.230469 172 L 219.230469 172 L 219.230469 244.175781 L 153.230469 244.175781 Z M 153.230469 172 " clip-rule="nonzero"/></clipPath></defs><g clip-path="url(#bb8fffdf82)"><path fill="#ededed" d="M 131.269531 156.320312 C 99.339844 156.320312 73.644531 130.523438 73.644531 98.554688 C 73.644531 67.605469 97.769531 42.339844 128.308594 40.785156 C 129.289062 40.746094 130.269531 40.785156 131.269531 40.785156 C 163.199219 40.785156 189.101562 66.605469 189.101562 98.554688 C 189.101562 130.523438 163.199219 156.320312 131.269531 156.320312 Z M 164.851562 176.964844 L 172.0625 169.097656 C 172.636719 168.464844 173.371094 168.035156 174.207031 167.808594 L 184.382812 164.925781 L 189.285156 155.402344 C 189.671875 154.664062 190.246094 154.050781 190.9375 153.644531 L 200.109375 147.980469 L 202.234375 137.433594 C 202.398438 136.636719 202.785156 135.898438 203.339844 135.308594 L 210.652344 127.4375 L 209.914062 116.707031 C 209.855469 115.886719 210.019531 115.089844 210.386719 114.375 L 215.289062 104.746094 L 211.671875 94.566406 C 211.425781 93.8125 211.40625 93.015625 211.570312 92.257812 L 213.714844 81.609375 L 207.609375 72.820312 C 207.117188 72.164062 206.832031 71.386719 206.769531 70.589844 L 206.035156 59.859375 L 197.800781 53.011719 C 197.167969 52.480469 196.679688 51.824219 196.414062 51.046875 L 192.796875 40.867188 L 182.992188 36.617188 C 182.238281 36.269531 181.601562 35.71875 181.132812 35.042969 L 175.027344 26.335938 L 164.484375 24.863281 C 163.667969 24.71875 162.890625 24.371094 162.257812 23.839844 L 154.027344 17.074219 L 143.484375 18.566406 C 142.667969 18.667969 141.832031 18.527344 141.074219 18.179688 L 131.269531 13.925781 L 121.546875 18.179688 C 120.789062 18.527344 119.972656 18.667969 119.136719 18.566406 L 108.59375 17.074219 L 100.363281 23.839844 C 99.730469 24.371094 98.953125 24.71875 98.136719 24.863281 L 87.59375 26.335938 L 81.386719 35.125 C 80.9375 35.777344 80.28125 36.289062 79.546875 36.617188 L 69.824219 40.867188 L 66.226562 51.046875 C 65.941406 51.824219 65.472656 52.480469 64.839844 53.011719 L 56.605469 59.859375 L 55.871094 70.589844 C 55.789062 71.386719 55.503906 72.164062 55.035156 72.820312 L 48.824219 81.609375 L 51.050781 92.257812 C 51.195312 93.035156 51.132812 93.832031 50.867188 94.566406 L 47.351562 104.746094 L 52.253906 114.375 C 52.601562 115.089844 52.765625 115.886719 52.707031 116.707031 L 51.96875 127.4375 L 59.28125 135.308594 C 59.835938 135.898438 60.222656 136.636719 60.386719 137.433594 L 62.53125 147.980469 L 71.683594 153.644531 C 72.355469 154.074219 72.886719 154.6875 73.253906 155.402344 L 78.261719 164.925781 L 88.433594 167.808594 C 89.25 168.035156 89.984375 168.464844 90.558594 169.097656 L 97.769531 176.964844 L 108.410156 176.964844 C 109.226562 176.964844 110.023438 177.191406 110.71875 177.621094 L 119.789062 183.179688 L 130.066406 180.296875 C 130.839844 180.074219 131.679688 180.074219 132.476562 180.296875 L 142.75 183.179688 L 151.902344 177.621094 C 152.597656 177.191406 153.394531 176.964844 154.210938 176.964844 L 164.851562 176.964844 " fill-opacity="1" fill-rule="nonzero"/></g><g clip-path="url(#0e97afb3e3)"><path fill="#ededed" d="M 95.847656 185.859375 C 94.601562 185.859375 93.417969 185.347656 92.578125 184.425781 L 84.859375 176.046875 L 73.949219 172.980469 C 73.277344 172.777344 72.683594 172.449219 72.171875 172 L 43.410156 223.941406 L 67.679688 213.882812 C 68.027344 213.742188 68.394531 213.636719 68.761719 213.597656 C 71.191406 213.25 73.4375 214.945312 73.785156 217.378906 L 77.546875 244.175781 L 109.148438 187.0625 L 107.1875 185.859375 L 95.847656 185.859375 " fill-opacity="1" fill-rule="nonzero"/></g><g clip-path="url(#b8d9ba17c5)"><path fill="#ededed" d="M 190.449219 172 C 189.9375 172.449219 189.34375 172.777344 188.691406 172.980469 L 177.785156 176.046875 L 170.042969 184.425781 C 169.203125 185.328125 168.019531 185.859375 166.792969 185.859375 L 155.457031 185.859375 L 153.472656 187.0625 L 185.074219 244.15625 L 188.855469 217.359375 C 188.894531 216.992188 189 216.644531 189.140625 216.273438 C 190.082031 214.027344 192.675781 212.941406 194.941406 213.863281 L 219.210938 223.921875 L 190.449219 172 " fill-opacity="1" fill-rule="nonzero"/></g></svg>