<svg xmlns="http://www.w3.org/2000/svg" xmlns:xlink="http://www.w3.org/1999/xlink" width="350" zoomAndPan="magnify" viewBox="0 0 262.5 262.500001" height="350" preserveAspectRatio="xMidYMid meet" version="1.0"><defs><clipPath id="62a12b0088"><path d="M 26.25 39.277344 L 242 39.277344 L 242 222 L 26.25 222 Z M 26.25 39.277344 " clip-rule="nonzero"/></clipPath></defs><g clip-path="url(#62a12b0088)"><path fill="#ededed" d="M 185.695312 39.519531 L 34.855469 71.753906 C 34.257812 71.882812 33.675781 72.058594 33.109375 72.285156 C 32.539062 72.511719 31.996094 72.785156 31.476562 73.105469 C 30.953125 73.425781 30.464844 73.785156 30.003906 74.1875 C 29.542969 74.589844 29.121094 75.03125 28.738281 75.503906 C 28.355469 75.980469 28.011719 76.484375 27.714844 77.015625 C 27.414062 77.546875 27.164062 78.101562 26.960938 78.675781 C 26.757812 79.253906 26.601562 79.839844 26.5 80.441406 C 26.398438 81.042969 26.34375 81.648438 26.347656 82.257812 L 26.347656 135.988281 C 26.347656 136.566406 26.394531 137.144531 26.488281 137.714844 C 26.582031 138.289062 26.71875 138.851562 26.90625 139.398438 C 27.089844 139.949219 27.316406 140.480469 27.589844 140.996094 C 27.859375 141.507812 28.167969 141.996094 28.519531 142.460938 C 28.871094 142.921875 29.253906 143.355469 29.675781 143.757812 C 30.097656 144.15625 30.546875 144.523438 31.027344 144.851562 C 31.503906 145.179688 32.007812 145.464844 32.535156 145.714844 C 33.0625 145.960938 33.605469 146.164062 34.164062 146.324219 L 85.234375 160.875 L 50.25 204.488281 C 49.808594 205.042969 49.421875 205.628906 49.09375 206.257812 C 48.765625 206.882812 48.503906 207.535156 48.304688 208.214844 C 48.109375 208.894531 47.976562 209.585938 47.917969 210.289062 C 47.855469 210.992188 47.863281 211.695312 47.941406 212.398438 C 48.019531 213.101562 48.164062 213.789062 48.378906 214.464844 C 48.589844 215.136719 48.867188 215.785156 49.210938 216.402344 C 49.550781 217.023438 49.949219 217.601562 50.40625 218.144531 C 50.863281 218.683594 51.367188 219.175781 51.921875 219.617188 C 52.476562 220.058594 53.066406 220.441406 53.695312 220.765625 C 54.324219 221.09375 54.980469 221.351562 55.660156 221.550781 C 56.339844 221.746094 57.035156 221.875 57.742188 221.933594 C 58.445312 221.992188 59.152344 221.984375 59.855469 221.90625 C 60.558594 221.828125 61.25 221.679688 61.925781 221.464844 C 62.601562 221.25 63.246094 220.972656 63.867188 220.632812 C 64.488281 220.289062 65.070312 219.890625 65.609375 219.433594 C 66.152344 218.980469 66.644531 218.476562 67.085938 217.921875 L 95.734375 182.203125 L 101.972656 213.316406 C 102.09375 213.917969 102.265625 214.507812 102.488281 215.082031 C 102.710938 215.65625 102.984375 216.207031 103.300781 216.738281 C 103.617188 217.265625 103.980469 217.761719 104.382812 218.230469 C 104.785156 218.695312 105.226562 219.125 105.703125 219.515625 C 106.179688 219.90625 106.6875 220.253906 107.226562 220.554688 C 107.761719 220.859375 108.324219 221.113281 108.902344 221.324219 C 109.484375 221.53125 110.078125 221.6875 110.6875 221.792969 C 111.296875 221.898438 111.910156 221.953125 112.527344 221.953125 C 113.242188 221.953125 113.953125 221.882812 114.652344 221.742188 C 115.347656 221.601562 116.019531 221.398438 116.671875 221.128906 C 117.324219 220.855469 117.945312 220.523438 118.535156 220.132812 C 119.121094 219.738281 119.664062 219.292969 120.164062 218.792969 C 120.664062 218.292969 121.109375 217.75 121.503906 217.164062 C 121.894531 216.578125 122.226562 215.957031 122.496094 215.304688 C 122.765625 214.652344 122.96875 213.980469 123.105469 213.289062 C 123.242188 212.597656 123.3125 211.898438 123.3125 211.191406 C 123.308594 210.488281 123.242188 209.789062 123.101562 209.097656 L 115.140625 169.398438 L 185 189.304688 C 185.398438 189.417969 185.804688 189.511719 186.214844 189.578125 C 186.625 189.644531 187.035156 189.6875 187.453125 189.707031 C 187.867188 189.726562 188.28125 189.722656 188.695312 189.695312 C 189.113281 189.667969 189.523438 189.613281 189.929688 189.539062 C 190.339844 189.464844 190.742188 189.363281 191.140625 189.242188 C 191.539062 189.121094 191.925781 188.976562 192.304688 188.808594 C 192.6875 188.640625 193.054688 188.453125 193.414062 188.242188 C 193.773438 188.03125 194.117188 187.800781 194.449219 187.550781 C 194.78125 187.304688 195.097656 187.035156 195.398438 186.75 C 195.699219 186.460938 195.980469 186.160156 196.246094 185.839844 C 196.511719 185.523438 196.757812 185.1875 196.984375 184.839844 C 197.210938 184.496094 197.417969 184.136719 197.605469 183.765625 C 197.789062 183.394531 197.953125 183.011719 198.09375 182.621094 C 198.234375 182.230469 198.351562 181.835938 198.445312 181.433594 C 198.542969 181.027344 198.613281 180.621094 198.660156 180.207031 C 198.707031 179.796875 198.730469 179.382812 198.730469 178.96875 L 198.730469 50.023438 C 198.730469 48.398438 198.378906 46.859375 197.679688 45.394531 C 196.980469 43.929688 195.996094 42.6875 194.734375 41.667969 C 194.109375 41.160156 193.4375 40.726562 192.71875 40.367188 C 191.996094 40.011719 191.246094 39.738281 190.460938 39.554688 C 189.679688 39.367188 188.886719 39.269531 188.082031 39.265625 C 187.273438 39.257812 186.480469 39.34375 185.695312 39.519531 Z M 177.183594 164.71875 L 47.894531 127.886719 L 47.894531 90.949219 L 177.183594 63.316406 Z M 241.828125 114.496094 C 241.828125 115.203125 241.757812 115.898438 241.621094 116.59375 C 241.484375 117.285156 241.277344 117.957031 241.007812 118.609375 C 240.738281 119.261719 240.40625 119.878906 240.011719 120.46875 C 239.621094 121.054688 239.171875 121.597656 238.671875 122.097656 C 238.171875 122.59375 237.628906 123.039062 237.039062 123.433594 C 236.453125 123.824219 235.832031 124.15625 235.175781 124.425781 C 234.523438 124.695312 233.847656 124.898438 233.15625 125.035156 C 232.460938 125.171875 231.761719 125.242188 231.054688 125.242188 L 220.277344 125.242188 C 219.570312 125.242188 218.871094 125.171875 218.175781 125.035156 C 217.484375 124.898438 216.808594 124.691406 216.15625 124.421875 C 215.503906 124.152344 214.882812 123.824219 214.292969 123.429688 C 213.703125 123.039062 213.160156 122.59375 212.660156 122.09375 C 212.160156 121.59375 211.714844 121.050781 211.320312 120.464844 C 210.925781 119.878906 210.59375 119.257812 210.324219 118.609375 C 210.054688 117.957031 209.851562 117.285156 209.710938 116.59375 C 209.574219 115.898438 209.503906 115.203125 209.503906 114.496094 C 209.503906 113.789062 209.574219 113.089844 209.710938 112.398438 C 209.851562 111.707031 210.054688 111.035156 210.324219 110.382812 C 210.59375 109.730469 210.925781 109.113281 211.320312 108.527344 C 211.714844 107.9375 212.160156 107.394531 212.660156 106.898438 C 213.160156 106.398438 213.703125 105.953125 214.292969 105.5625 C 214.882812 105.167969 215.503906 104.839844 216.15625 104.566406 C 216.808594 104.296875 217.484375 104.09375 218.175781 103.957031 C 218.871094 103.820312 219.570312 103.75 220.277344 103.75 L 231.054688 103.75 C 231.761719 103.75 232.460938 103.816406 233.15625 103.957031 C 233.847656 104.09375 234.523438 104.296875 235.175781 104.566406 C 235.832031 104.835938 236.453125 105.167969 237.039062 105.558594 C 237.628906 105.949219 238.171875 106.398438 238.671875 106.894531 C 239.171875 107.394531 239.621094 107.9375 240.011719 108.523438 C 240.40625 109.109375 240.738281 109.730469 241.007812 110.382812 C 241.277344 111.035156 241.484375 111.707031 241.621094 112.398438 C 241.757812 113.089844 241.828125 113.789062 241.828125 114.496094 Z M 212.660156 89.855469 C 212.160156 89.355469 211.714844 88.816406 211.320312 88.226562 C 210.929688 87.640625 210.597656 87.023438 210.324219 86.371094 C 210.054688 85.71875 209.851562 85.046875 209.710938 84.355469 C 209.574219 83.664062 209.503906 82.964844 209.503906 82.257812 C 209.503906 81.554688 209.574219 80.855469 209.710938 80.164062 C 209.851562 79.46875 210.054688 78.796875 210.324219 78.148438 C 210.597656 77.496094 210.929688 76.875 211.320312 76.289062 C 211.714844 75.703125 212.160156 75.160156 212.660156 74.660156 L 223.433594 63.914062 C 223.9375 63.421875 224.480469 62.980469 225.070312 62.59375 C 225.65625 62.207031 226.277344 61.878906 226.929688 61.613281 C 227.582031 61.347656 228.253906 61.148438 228.945312 61.015625 C 229.636719 60.878906 230.335938 60.8125 231.039062 60.816406 C 231.742188 60.820312 232.441406 60.890625 233.132812 61.027344 C 233.824219 61.167969 234.492188 61.371094 235.144531 61.640625 C 235.792969 61.910156 236.410156 62.242188 236.996094 62.632812 C 237.582031 63.023438 238.125 63.464844 238.621094 63.964844 C 239.121094 64.460938 239.566406 65 239.957031 65.585938 C 240.347656 66.167969 240.679688 66.785156 240.953125 67.433594 C 241.222656 68.082031 241.425781 68.75 241.566406 69.441406 C 241.703125 70.128906 241.777344 70.824219 241.777344 71.527344 C 241.78125 72.230469 241.714844 72.925781 241.578125 73.617188 C 241.445312 74.304688 241.242188 74.976562 240.976562 75.625 C 240.710938 76.277344 240.382812 76.894531 239.996094 77.480469 C 239.605469 78.066406 239.164062 78.609375 238.671875 79.109375 L 227.894531 89.855469 C 227.394531 90.355469 226.851562 90.800781 226.261719 91.191406 C 225.675781 91.585938 225.054688 91.914062 224.402344 92.1875 C 223.746094 92.457031 223.074219 92.660156 222.378906 92.796875 C 221.6875 92.933594 220.984375 93.003906 220.277344 93.003906 C 219.570312 93.003906 218.871094 92.933594 218.175781 92.796875 C 217.484375 92.660156 216.808594 92.457031 216.15625 92.1875 C 215.503906 91.914062 214.882812 91.585938 214.292969 91.191406 C 213.703125 90.800781 213.160156 90.355469 212.660156 89.855469 Z M 238.671875 149.882812 C 239.175781 150.378906 239.632812 150.921875 240.03125 151.507812 C 240.429688 152.09375 240.769531 152.714844 241.046875 153.367188 C 241.324219 154.023438 241.53125 154.695312 241.675781 155.390625 C 241.816406 156.085938 241.890625 156.789062 241.894531 157.5 C 241.898438 158.207031 241.832031 158.910156 241.695312 159.605469 C 241.558594 160.304688 241.355469 160.980469 241.082031 161.636719 C 240.8125 162.292969 240.480469 162.914062 240.085938 163.503906 C 239.691406 164.097656 239.242188 164.640625 238.738281 165.144531 C 238.234375 165.644531 237.6875 166.09375 237.097656 166.488281 C 236.503906 166.878906 235.878906 167.210938 235.222656 167.480469 C 234.5625 167.753906 233.886719 167.957031 233.1875 168.089844 C 232.488281 168.226562 231.785156 168.292969 231.074219 168.289062 C 230.363281 168.289062 229.65625 168.214844 228.960938 168.074219 C 228.261719 167.929688 227.585938 167.722656 226.929688 167.445312 C 226.277344 167.167969 225.652344 166.832031 225.066406 166.433594 C 224.476562 166.035156 223.933594 165.582031 223.433594 165.074219 L 212.660156 154.328125 C 212.167969 153.828125 211.730469 153.285156 211.34375 152.699219 C 210.957031 152.113281 210.632812 151.496094 210.367188 150.84375 C 210.101562 150.195312 209.902344 149.527344 209.769531 148.835938 C 209.636719 148.148438 209.570312 147.453125 209.574219 146.753906 C 209.578125 146.050781 209.648438 145.355469 209.789062 144.667969 C 209.925781 143.980469 210.132812 143.3125 210.402344 142.667969 C 210.675781 142.019531 211.003906 141.402344 211.394531 140.820312 C 211.789062 140.238281 212.230469 139.699219 212.730469 139.203125 C 213.226562 138.707031 213.765625 138.265625 214.351562 137.875 C 214.9375 137.484375 215.554688 137.152344 216.203125 136.882812 C 216.851562 136.613281 217.519531 136.410156 218.210938 136.269531 C 218.898438 136.128906 219.59375 136.058594 220.296875 136.054688 C 221.003906 136.054688 221.699219 136.117188 222.390625 136.25 C 223.078125 136.382812 223.75 136.582031 224.402344 136.847656 C 225.054688 137.109375 225.675781 137.433594 226.261719 137.820312 C 226.847656 138.207031 227.394531 138.644531 227.894531 139.136719 Z M 238.671875 149.882812 " fill-opacity="1" fill-rule="nonzero"/></g></svg>