<svg xmlns="http://www.w3.org/2000/svg" xmlns:xlink="http://www.w3.org/1999/xlink" width="350" zoomAndPan="magnify" viewBox="0 0 262.5 262.500001" height="350" preserveAspectRatio="xMidYMid meet" version="1.0"><defs><clipPath id="25e12eb623"><path d="M 37.613281 26.25 L 225 26.25 L 225 238.5 L 37.613281 238.5 Z M 37.613281 26.25 " clip-rule="nonzero"/></clipPath></defs><g clip-path="url(#25e12eb623)"><path fill="#ededed" d="M 125.363281 62.980469 C 137.011719 70.394531 145.132812 82.753906 146.546875 96.882812 C 151.136719 99 156.429688 100.414062 162.078125 100.414062 C 182.558594 100.414062 199.152344 83.816406 199.152344 63.332031 C 199.152344 42.847656 182.558594 26.25 162.078125 26.25 C 141.957031 26.601562 125.363281 42.847656 125.363281 62.980469 Z M 101 138.554688 C 121.476562 138.554688 138.070312 121.957031 138.070312 101.472656 C 138.070312 80.988281 121.476562 64.390625 101 64.390625 C 80.523438 64.390625 63.929688 80.988281 63.929688 101.472656 C 63.929688 121.957031 80.523438 138.554688 101 138.554688 Z M 116.535156 141.027344 L 85.113281 141.027344 C 58.988281 141.027344 37.804688 162.21875 37.804688 188.351562 L 37.804688 227.550781 L 40.273438 228.257812 C 64.988281 236.027344 86.878906 238.5 104.53125 238.5 C 139.132812 238.5 159.253906 228.613281 160.667969 227.90625 L 163.140625 226.492188 L 163.492188 226.492188 L 163.492188 188.351562 C 163.84375 162.21875 142.660156 141.027344 116.535156 141.027344 Z M 177.613281 102.886719 L 146.546875 102.886719 C 146.191406 115.246094 140.898438 126.546875 132.421875 134.671875 C 155.726562 141.734375 172.671875 162.921875 172.671875 188.351562 L 172.671875 200.003906 C 203.386719 198.945312 221.039062 190.117188 222.097656 189.765625 L 224.570312 188.351562 L 224.925781 188.351562 L 224.925781 150.210938 C 224.925781 124.074219 203.742188 102.886719 177.613281 102.886719 Z M 177.613281 102.886719 " fill-opacity="1" fill-rule="nonzero"/></g></svg>